<mxfile host="Electron" agent="Mozilla/5.0 (Windows NT 10.0; Win64; x64) AppleWebKit/537.36 (KHTML, like Gecko) draw.io/27.0.9 Chrome/134.0.6998.205 Electron/35.4.0 Safari/537.36" version="27.0.9">
  <diagram name="Page-1" id="4T1WIMYsZH72HeNve6yz">
    <mxGraphModel dx="1878" dy="595" grid="1" gridSize="10" guides="1" tooltips="1" connect="1" arrows="1" fold="1" page="1" pageScale="1" pageWidth="850" pageHeight="1100" math="0" shadow="0">
      <root>
        <mxCell id="0" />
        <mxCell id="1" parent="0" />
        <mxCell id="nuJ0KApkgOwOXbGpMMdL-1" value="&lt;font style=&quot;font-size: 21px;&quot;&gt;&lt;b style=&quot;&quot;&gt;data mart&lt;/b&gt;&lt;/font&gt;" style="text;html=1;align=center;verticalAlign=middle;resizable=0;points=[];autosize=1;strokeColor=#666666;fillColor=#f5f5f5;fontColor=#333333;" vertex="1" parent="1">
          <mxGeometry x="-20" y="33" width="120" height="40" as="geometry" />
        </mxCell>
        <mxCell id="nuJ0KApkgOwOXbGpMMdL-2" value="&lt;font style=&quot;font-size: 15px;&quot;&gt;&lt;b&gt;star schema&lt;/b&gt;&lt;/font&gt;" style="text;html=1;align=center;verticalAlign=middle;resizable=0;points=[];autosize=1;rounded=1;dashed=1;dashPattern=8 8;" vertex="1" parent="1">
          <mxGeometry x="-15" y="70" width="110" height="30" as="geometry" />
        </mxCell>
        <mxCell id="nuJ0KApkgOwOXbGpMMdL-3" value="gold.dim_customers" style="shape=table;startSize=40;container=1;collapsible=1;childLayout=tableLayout;fixedRows=1;rowLines=0;fontStyle=1;align=center;resizeLast=1;html=1;fillColor=#fff2cc;strokeColor=#d6b656;rounded=1;" vertex="1" parent="1">
          <mxGeometry x="10" y="170" width="180" height="505" as="geometry" />
        </mxCell>
        <mxCell id="nuJ0KApkgOwOXbGpMMdL-4" value="" style="shape=tableRow;horizontal=0;startSize=0;swimlaneHead=0;swimlaneBody=0;fillColor=none;collapsible=0;dropTarget=0;points=[[0,0.5],[1,0.5]];portConstraint=eastwest;top=0;left=0;right=0;bottom=1;" vertex="1" parent="nuJ0KApkgOwOXbGpMMdL-3">
          <mxGeometry y="40" width="180" height="57" as="geometry" />
        </mxCell>
        <mxCell id="nuJ0KApkgOwOXbGpMMdL-5" value="PK" style="shape=partialRectangle;connectable=0;fillColor=none;top=0;left=0;bottom=0;right=0;fontStyle=1;overflow=hidden;whiteSpace=wrap;html=1;" vertex="1" parent="nuJ0KApkgOwOXbGpMMdL-4">
          <mxGeometry width="30" height="57" as="geometry">
            <mxRectangle width="30" height="57" as="alternateBounds" />
          </mxGeometry>
        </mxCell>
        <mxCell id="nuJ0KApkgOwOXbGpMMdL-6" value="customer_key" style="shape=partialRectangle;connectable=0;fillColor=none;top=0;left=0;bottom=0;right=0;align=left;spacingLeft=6;fontStyle=5;overflow=hidden;whiteSpace=wrap;html=1;fontSize=14;" vertex="1" parent="nuJ0KApkgOwOXbGpMMdL-4">
          <mxGeometry x="30" width="150" height="57" as="geometry">
            <mxRectangle width="150" height="57" as="alternateBounds" />
          </mxGeometry>
        </mxCell>
        <mxCell id="nuJ0KApkgOwOXbGpMMdL-7" value="" style="shape=tableRow;horizontal=0;startSize=0;swimlaneHead=0;swimlaneBody=0;fillColor=none;collapsible=0;dropTarget=0;points=[[0,0.5],[1,0.5]];portConstraint=eastwest;top=0;left=0;right=0;bottom=0;fontSize=13;" vertex="1" parent="nuJ0KApkgOwOXbGpMMdL-3">
          <mxGeometry y="97" width="180" height="43" as="geometry" />
        </mxCell>
        <mxCell id="nuJ0KApkgOwOXbGpMMdL-8" value="" style="shape=partialRectangle;connectable=0;fillColor=none;top=0;left=0;bottom=0;right=0;editable=1;overflow=hidden;whiteSpace=wrap;html=1;fontSize=13;" vertex="1" parent="nuJ0KApkgOwOXbGpMMdL-7">
          <mxGeometry width="30" height="43" as="geometry">
            <mxRectangle width="30" height="43" as="alternateBounds" />
          </mxGeometry>
        </mxCell>
        <mxCell id="nuJ0KApkgOwOXbGpMMdL-9" value="customer_id" style="shape=partialRectangle;connectable=0;fillColor=none;top=0;left=0;bottom=0;right=0;align=left;spacingLeft=6;overflow=hidden;whiteSpace=wrap;html=1;fontSize=13;fontStyle=1" vertex="1" parent="nuJ0KApkgOwOXbGpMMdL-7">
          <mxGeometry x="30" width="150" height="43" as="geometry">
            <mxRectangle width="150" height="43" as="alternateBounds" />
          </mxGeometry>
        </mxCell>
        <mxCell id="nuJ0KApkgOwOXbGpMMdL-10" value="" style="shape=tableRow;horizontal=0;startSize=0;swimlaneHead=0;swimlaneBody=0;fillColor=none;collapsible=0;dropTarget=0;points=[[0,0.5],[1,0.5]];portConstraint=eastwest;top=0;left=0;right=0;bottom=0;fontSize=13;fontStyle=1" vertex="1" parent="nuJ0KApkgOwOXbGpMMdL-3">
          <mxGeometry y="140" width="180" height="46" as="geometry" />
        </mxCell>
        <mxCell id="nuJ0KApkgOwOXbGpMMdL-11" value="" style="shape=partialRectangle;connectable=0;fillColor=none;top=0;left=0;bottom=0;right=0;editable=1;overflow=hidden;whiteSpace=wrap;html=1;fontSize=13;fontStyle=1" vertex="1" parent="nuJ0KApkgOwOXbGpMMdL-10">
          <mxGeometry width="30" height="46" as="geometry">
            <mxRectangle width="30" height="46" as="alternateBounds" />
          </mxGeometry>
        </mxCell>
        <mxCell id="nuJ0KApkgOwOXbGpMMdL-12" value="customer_number" style="shape=partialRectangle;connectable=0;fillColor=none;top=0;left=0;bottom=0;right=0;align=left;spacingLeft=6;overflow=hidden;whiteSpace=wrap;html=1;fontSize=13;fontStyle=1" vertex="1" parent="nuJ0KApkgOwOXbGpMMdL-10">
          <mxGeometry x="30" width="150" height="46" as="geometry">
            <mxRectangle width="150" height="46" as="alternateBounds" />
          </mxGeometry>
        </mxCell>
        <mxCell id="nuJ0KApkgOwOXbGpMMdL-13" value="" style="shape=tableRow;horizontal=0;startSize=0;swimlaneHead=0;swimlaneBody=0;fillColor=none;collapsible=0;dropTarget=0;points=[[0,0.5],[1,0.5]];portConstraint=eastwest;top=0;left=0;right=0;bottom=0;fontSize=13;fontStyle=1" vertex="1" parent="nuJ0KApkgOwOXbGpMMdL-3">
          <mxGeometry y="186" width="180" height="49" as="geometry" />
        </mxCell>
        <mxCell id="nuJ0KApkgOwOXbGpMMdL-14" value="" style="shape=partialRectangle;connectable=0;fillColor=none;top=0;left=0;bottom=0;right=0;editable=1;overflow=hidden;whiteSpace=wrap;html=1;fontSize=13;fontStyle=1" vertex="1" parent="nuJ0KApkgOwOXbGpMMdL-13">
          <mxGeometry width="30" height="49" as="geometry">
            <mxRectangle width="30" height="49" as="alternateBounds" />
          </mxGeometry>
        </mxCell>
        <mxCell id="nuJ0KApkgOwOXbGpMMdL-15" value="first_name" style="shape=partialRectangle;connectable=0;fillColor=none;top=0;left=0;bottom=0;right=0;align=left;spacingLeft=6;overflow=hidden;whiteSpace=wrap;html=1;fontSize=13;fontStyle=1" vertex="1" parent="nuJ0KApkgOwOXbGpMMdL-13">
          <mxGeometry x="30" width="150" height="49" as="geometry">
            <mxRectangle width="150" height="49" as="alternateBounds" />
          </mxGeometry>
        </mxCell>
        <mxCell id="nuJ0KApkgOwOXbGpMMdL-16" style="shape=tableRow;horizontal=0;startSize=0;swimlaneHead=0;swimlaneBody=0;fillColor=none;collapsible=0;dropTarget=0;points=[[0,0.5],[1,0.5]];portConstraint=eastwest;top=0;left=0;right=0;bottom=0;fontSize=13;fontStyle=1" vertex="1" parent="nuJ0KApkgOwOXbGpMMdL-3">
          <mxGeometry y="235" width="180" height="45" as="geometry" />
        </mxCell>
        <mxCell id="nuJ0KApkgOwOXbGpMMdL-17" style="shape=partialRectangle;connectable=0;fillColor=none;top=0;left=0;bottom=0;right=0;editable=1;overflow=hidden;whiteSpace=wrap;html=1;fontSize=13;fontStyle=1" vertex="1" parent="nuJ0KApkgOwOXbGpMMdL-16">
          <mxGeometry width="30" height="45" as="geometry">
            <mxRectangle width="30" height="45" as="alternateBounds" />
          </mxGeometry>
        </mxCell>
        <mxCell id="nuJ0KApkgOwOXbGpMMdL-18" value="last_name" style="shape=partialRectangle;connectable=0;fillColor=none;top=0;left=0;bottom=0;right=0;align=left;spacingLeft=6;overflow=hidden;whiteSpace=wrap;html=1;fontSize=13;fontStyle=1" vertex="1" parent="nuJ0KApkgOwOXbGpMMdL-16">
          <mxGeometry x="30" width="150" height="45" as="geometry">
            <mxRectangle width="150" height="45" as="alternateBounds" />
          </mxGeometry>
        </mxCell>
        <mxCell id="nuJ0KApkgOwOXbGpMMdL-19" style="shape=tableRow;horizontal=0;startSize=0;swimlaneHead=0;swimlaneBody=0;fillColor=none;collapsible=0;dropTarget=0;points=[[0,0.5],[1,0.5]];portConstraint=eastwest;top=0;left=0;right=0;bottom=0;fontSize=13;fontStyle=1" vertex="1" parent="nuJ0KApkgOwOXbGpMMdL-3">
          <mxGeometry y="280" width="180" height="45" as="geometry" />
        </mxCell>
        <mxCell id="nuJ0KApkgOwOXbGpMMdL-20" style="shape=partialRectangle;connectable=0;fillColor=none;top=0;left=0;bottom=0;right=0;editable=1;overflow=hidden;whiteSpace=wrap;html=1;fontSize=13;fontStyle=1" vertex="1" parent="nuJ0KApkgOwOXbGpMMdL-19">
          <mxGeometry width="30" height="45" as="geometry">
            <mxRectangle width="30" height="45" as="alternateBounds" />
          </mxGeometry>
        </mxCell>
        <mxCell id="nuJ0KApkgOwOXbGpMMdL-21" value="country" style="shape=partialRectangle;connectable=0;fillColor=none;top=0;left=0;bottom=0;right=0;align=left;spacingLeft=6;overflow=hidden;whiteSpace=wrap;html=1;fontSize=13;fontStyle=1" vertex="1" parent="nuJ0KApkgOwOXbGpMMdL-19">
          <mxGeometry x="30" width="150" height="45" as="geometry">
            <mxRectangle width="150" height="45" as="alternateBounds" />
          </mxGeometry>
        </mxCell>
        <mxCell id="nuJ0KApkgOwOXbGpMMdL-22" style="shape=tableRow;horizontal=0;startSize=0;swimlaneHead=0;swimlaneBody=0;fillColor=none;collapsible=0;dropTarget=0;points=[[0,0.5],[1,0.5]];portConstraint=eastwest;top=0;left=0;right=0;bottom=0;fontSize=13;fontStyle=1" vertex="1" parent="nuJ0KApkgOwOXbGpMMdL-3">
          <mxGeometry y="325" width="180" height="45" as="geometry" />
        </mxCell>
        <mxCell id="nuJ0KApkgOwOXbGpMMdL-23" style="shape=partialRectangle;connectable=0;fillColor=none;top=0;left=0;bottom=0;right=0;editable=1;overflow=hidden;whiteSpace=wrap;html=1;fontSize=13;fontStyle=1" vertex="1" parent="nuJ0KApkgOwOXbGpMMdL-22">
          <mxGeometry width="30" height="45" as="geometry">
            <mxRectangle width="30" height="45" as="alternateBounds" />
          </mxGeometry>
        </mxCell>
        <mxCell id="nuJ0KApkgOwOXbGpMMdL-24" value="maritila_status" style="shape=partialRectangle;connectable=0;fillColor=none;top=0;left=0;bottom=0;right=0;align=left;spacingLeft=6;overflow=hidden;whiteSpace=wrap;html=1;fontSize=13;fontStyle=1" vertex="1" parent="nuJ0KApkgOwOXbGpMMdL-22">
          <mxGeometry x="30" width="150" height="45" as="geometry">
            <mxRectangle width="150" height="45" as="alternateBounds" />
          </mxGeometry>
        </mxCell>
        <mxCell id="nuJ0KApkgOwOXbGpMMdL-25" style="shape=tableRow;horizontal=0;startSize=0;swimlaneHead=0;swimlaneBody=0;fillColor=none;collapsible=0;dropTarget=0;points=[[0,0.5],[1,0.5]];portConstraint=eastwest;top=0;left=0;right=0;bottom=0;fontSize=13;fontStyle=1" vertex="1" parent="nuJ0KApkgOwOXbGpMMdL-3">
          <mxGeometry y="370" width="180" height="45" as="geometry" />
        </mxCell>
        <mxCell id="nuJ0KApkgOwOXbGpMMdL-26" style="shape=partialRectangle;connectable=0;fillColor=none;top=0;left=0;bottom=0;right=0;editable=1;overflow=hidden;whiteSpace=wrap;html=1;fontSize=13;fontStyle=1" vertex="1" parent="nuJ0KApkgOwOXbGpMMdL-25">
          <mxGeometry width="30" height="45" as="geometry">
            <mxRectangle width="30" height="45" as="alternateBounds" />
          </mxGeometry>
        </mxCell>
        <mxCell id="nuJ0KApkgOwOXbGpMMdL-27" value="gender" style="shape=partialRectangle;connectable=0;fillColor=none;top=0;left=0;bottom=0;right=0;align=left;spacingLeft=6;overflow=hidden;whiteSpace=wrap;html=1;fontSize=13;fontStyle=1" vertex="1" parent="nuJ0KApkgOwOXbGpMMdL-25">
          <mxGeometry x="30" width="150" height="45" as="geometry">
            <mxRectangle width="150" height="45" as="alternateBounds" />
          </mxGeometry>
        </mxCell>
        <mxCell id="nuJ0KApkgOwOXbGpMMdL-28" style="shape=tableRow;horizontal=0;startSize=0;swimlaneHead=0;swimlaneBody=0;fillColor=none;collapsible=0;dropTarget=0;points=[[0,0.5],[1,0.5]];portConstraint=eastwest;top=0;left=0;right=0;bottom=0;fontSize=13;fontStyle=1" vertex="1" parent="nuJ0KApkgOwOXbGpMMdL-3">
          <mxGeometry y="415" width="180" height="45" as="geometry" />
        </mxCell>
        <mxCell id="nuJ0KApkgOwOXbGpMMdL-29" style="shape=partialRectangle;connectable=0;fillColor=none;top=0;left=0;bottom=0;right=0;editable=1;overflow=hidden;whiteSpace=wrap;html=1;fontSize=13;fontStyle=1" vertex="1" parent="nuJ0KApkgOwOXbGpMMdL-28">
          <mxGeometry width="30" height="45" as="geometry">
            <mxRectangle width="30" height="45" as="alternateBounds" />
          </mxGeometry>
        </mxCell>
        <mxCell id="nuJ0KApkgOwOXbGpMMdL-30" value="birthdate" style="shape=partialRectangle;connectable=0;fillColor=none;top=0;left=0;bottom=0;right=0;align=left;spacingLeft=6;overflow=hidden;whiteSpace=wrap;html=1;fontSize=13;fontStyle=1" vertex="1" parent="nuJ0KApkgOwOXbGpMMdL-28">
          <mxGeometry x="30" width="150" height="45" as="geometry">
            <mxRectangle width="150" height="45" as="alternateBounds" />
          </mxGeometry>
        </mxCell>
        <mxCell id="nuJ0KApkgOwOXbGpMMdL-31" style="shape=tableRow;horizontal=0;startSize=0;swimlaneHead=0;swimlaneBody=0;fillColor=none;collapsible=0;dropTarget=0;points=[[0,0.5],[1,0.5]];portConstraint=eastwest;top=0;left=0;right=0;bottom=0;fontSize=13;fontStyle=1" vertex="1" parent="nuJ0KApkgOwOXbGpMMdL-3">
          <mxGeometry y="460" width="180" height="45" as="geometry" />
        </mxCell>
        <mxCell id="nuJ0KApkgOwOXbGpMMdL-32" style="shape=partialRectangle;connectable=0;fillColor=none;top=0;left=0;bottom=0;right=0;editable=1;overflow=hidden;whiteSpace=wrap;html=1;fontSize=13;fontStyle=1" vertex="1" parent="nuJ0KApkgOwOXbGpMMdL-31">
          <mxGeometry width="30" height="45" as="geometry">
            <mxRectangle width="30" height="45" as="alternateBounds" />
          </mxGeometry>
        </mxCell>
        <mxCell id="nuJ0KApkgOwOXbGpMMdL-33" value="create_date" style="shape=partialRectangle;connectable=0;fillColor=none;top=0;left=0;bottom=0;right=0;align=left;spacingLeft=6;overflow=hidden;whiteSpace=wrap;html=1;fontSize=13;fontStyle=1" vertex="1" parent="nuJ0KApkgOwOXbGpMMdL-31">
          <mxGeometry x="30" width="150" height="45" as="geometry">
            <mxRectangle width="150" height="45" as="alternateBounds" />
          </mxGeometry>
        </mxCell>
        <mxCell id="nuJ0KApkgOwOXbGpMMdL-47" value="gold.dim_products" style="shape=table;startSize=45;container=1;collapsible=1;childLayout=tableLayout;fixedRows=1;rowLines=0;fontStyle=1;align=center;resizeLast=1;html=1;fillColor=#fff2cc;strokeColor=#d6b656;rounded=1;" vertex="1" parent="1">
          <mxGeometry x="650" y="170" width="180" height="560" as="geometry" />
        </mxCell>
        <mxCell id="nuJ0KApkgOwOXbGpMMdL-48" value="" style="shape=tableRow;horizontal=0;startSize=0;swimlaneHead=0;swimlaneBody=0;fillColor=none;collapsible=0;dropTarget=0;points=[[0,0.5],[1,0.5]];portConstraint=eastwest;top=0;left=0;right=0;bottom=1;" vertex="1" parent="nuJ0KApkgOwOXbGpMMdL-47">
          <mxGeometry y="45" width="180" height="57" as="geometry" />
        </mxCell>
        <mxCell id="nuJ0KApkgOwOXbGpMMdL-49" value="PK" style="shape=partialRectangle;connectable=0;fillColor=none;top=0;left=0;bottom=0;right=0;fontStyle=1;overflow=hidden;whiteSpace=wrap;html=1;" vertex="1" parent="nuJ0KApkgOwOXbGpMMdL-48">
          <mxGeometry width="30" height="57" as="geometry">
            <mxRectangle width="30" height="57" as="alternateBounds" />
          </mxGeometry>
        </mxCell>
        <mxCell id="nuJ0KApkgOwOXbGpMMdL-50" value="product_key" style="shape=partialRectangle;connectable=0;fillColor=none;top=0;left=0;bottom=0;right=0;align=left;spacingLeft=6;fontStyle=5;overflow=hidden;whiteSpace=wrap;html=1;fontSize=14;" vertex="1" parent="nuJ0KApkgOwOXbGpMMdL-48">
          <mxGeometry x="30" width="150" height="57" as="geometry">
            <mxRectangle width="150" height="57" as="alternateBounds" />
          </mxGeometry>
        </mxCell>
        <mxCell id="nuJ0KApkgOwOXbGpMMdL-51" value="" style="shape=tableRow;horizontal=0;startSize=0;swimlaneHead=0;swimlaneBody=0;fillColor=none;collapsible=0;dropTarget=0;points=[[0,0.5],[1,0.5]];portConstraint=eastwest;top=0;left=0;right=0;bottom=0;fontSize=13;" vertex="1" parent="nuJ0KApkgOwOXbGpMMdL-47">
          <mxGeometry y="102" width="180" height="43" as="geometry" />
        </mxCell>
        <mxCell id="nuJ0KApkgOwOXbGpMMdL-52" value="" style="shape=partialRectangle;connectable=0;fillColor=none;top=0;left=0;bottom=0;right=0;editable=1;overflow=hidden;whiteSpace=wrap;html=1;fontSize=13;" vertex="1" parent="nuJ0KApkgOwOXbGpMMdL-51">
          <mxGeometry width="30" height="43" as="geometry">
            <mxRectangle width="30" height="43" as="alternateBounds" />
          </mxGeometry>
        </mxCell>
        <mxCell id="nuJ0KApkgOwOXbGpMMdL-53" value="product_id" style="shape=partialRectangle;connectable=0;fillColor=none;top=0;left=0;bottom=0;right=0;align=left;spacingLeft=6;overflow=hidden;whiteSpace=wrap;html=1;fontSize=13;fontStyle=1" vertex="1" parent="nuJ0KApkgOwOXbGpMMdL-51">
          <mxGeometry x="30" width="150" height="43" as="geometry">
            <mxRectangle width="150" height="43" as="alternateBounds" />
          </mxGeometry>
        </mxCell>
        <mxCell id="nuJ0KApkgOwOXbGpMMdL-54" value="" style="shape=tableRow;horizontal=0;startSize=0;swimlaneHead=0;swimlaneBody=0;fillColor=none;collapsible=0;dropTarget=0;points=[[0,0.5],[1,0.5]];portConstraint=eastwest;top=0;left=0;right=0;bottom=0;fontSize=13;" vertex="1" parent="nuJ0KApkgOwOXbGpMMdL-47">
          <mxGeometry y="145" width="180" height="46" as="geometry" />
        </mxCell>
        <mxCell id="nuJ0KApkgOwOXbGpMMdL-55" value="" style="shape=partialRectangle;connectable=0;fillColor=none;top=0;left=0;bottom=0;right=0;editable=1;overflow=hidden;whiteSpace=wrap;html=1;fontSize=13;" vertex="1" parent="nuJ0KApkgOwOXbGpMMdL-54">
          <mxGeometry width="30" height="46" as="geometry">
            <mxRectangle width="30" height="46" as="alternateBounds" />
          </mxGeometry>
        </mxCell>
        <mxCell id="nuJ0KApkgOwOXbGpMMdL-56" value="product_number" style="shape=partialRectangle;connectable=0;fillColor=none;top=0;left=0;bottom=0;right=0;align=left;spacingLeft=6;overflow=hidden;whiteSpace=wrap;html=1;fontSize=13;fontStyle=1" vertex="1" parent="nuJ0KApkgOwOXbGpMMdL-54">
          <mxGeometry x="30" width="150" height="46" as="geometry">
            <mxRectangle width="150" height="46" as="alternateBounds" />
          </mxGeometry>
        </mxCell>
        <mxCell id="nuJ0KApkgOwOXbGpMMdL-57" value="" style="shape=tableRow;horizontal=0;startSize=0;swimlaneHead=0;swimlaneBody=0;fillColor=none;collapsible=0;dropTarget=0;points=[[0,0.5],[1,0.5]];portConstraint=eastwest;top=0;left=0;right=0;bottom=0;fontSize=13;" vertex="1" parent="nuJ0KApkgOwOXbGpMMdL-47">
          <mxGeometry y="191" width="180" height="49" as="geometry" />
        </mxCell>
        <mxCell id="nuJ0KApkgOwOXbGpMMdL-58" value="" style="shape=partialRectangle;connectable=0;fillColor=none;top=0;left=0;bottom=0;right=0;editable=1;overflow=hidden;whiteSpace=wrap;html=1;fontSize=13;" vertex="1" parent="nuJ0KApkgOwOXbGpMMdL-57">
          <mxGeometry width="30" height="49" as="geometry">
            <mxRectangle width="30" height="49" as="alternateBounds" />
          </mxGeometry>
        </mxCell>
        <mxCell id="nuJ0KApkgOwOXbGpMMdL-59" value="product_name" style="shape=partialRectangle;connectable=0;fillColor=none;top=0;left=0;bottom=0;right=0;align=left;spacingLeft=6;overflow=hidden;whiteSpace=wrap;html=1;fontSize=13;fontStyle=1" vertex="1" parent="nuJ0KApkgOwOXbGpMMdL-57">
          <mxGeometry x="30" width="150" height="49" as="geometry">
            <mxRectangle width="150" height="49" as="alternateBounds" />
          </mxGeometry>
        </mxCell>
        <mxCell id="nuJ0KApkgOwOXbGpMMdL-60" style="shape=tableRow;horizontal=0;startSize=0;swimlaneHead=0;swimlaneBody=0;fillColor=none;collapsible=0;dropTarget=0;points=[[0,0.5],[1,0.5]];portConstraint=eastwest;top=0;left=0;right=0;bottom=0;fontSize=13;" vertex="1" parent="nuJ0KApkgOwOXbGpMMdL-47">
          <mxGeometry y="240" width="180" height="45" as="geometry" />
        </mxCell>
        <mxCell id="nuJ0KApkgOwOXbGpMMdL-61" style="shape=partialRectangle;connectable=0;fillColor=none;top=0;left=0;bottom=0;right=0;editable=1;overflow=hidden;whiteSpace=wrap;html=1;fontSize=13;" vertex="1" parent="nuJ0KApkgOwOXbGpMMdL-60">
          <mxGeometry width="30" height="45" as="geometry">
            <mxRectangle width="30" height="45" as="alternateBounds" />
          </mxGeometry>
        </mxCell>
        <mxCell id="nuJ0KApkgOwOXbGpMMdL-62" value="category_id" style="shape=partialRectangle;connectable=0;fillColor=none;top=0;left=0;bottom=0;right=0;align=left;spacingLeft=6;overflow=hidden;whiteSpace=wrap;html=1;fontSize=13;fontStyle=1" vertex="1" parent="nuJ0KApkgOwOXbGpMMdL-60">
          <mxGeometry x="30" width="150" height="45" as="geometry">
            <mxRectangle width="150" height="45" as="alternateBounds" />
          </mxGeometry>
        </mxCell>
        <mxCell id="nuJ0KApkgOwOXbGpMMdL-63" style="shape=tableRow;horizontal=0;startSize=0;swimlaneHead=0;swimlaneBody=0;fillColor=none;collapsible=0;dropTarget=0;points=[[0,0.5],[1,0.5]];portConstraint=eastwest;top=0;left=0;right=0;bottom=0;fontSize=13;" vertex="1" parent="nuJ0KApkgOwOXbGpMMdL-47">
          <mxGeometry y="285" width="180" height="45" as="geometry" />
        </mxCell>
        <mxCell id="nuJ0KApkgOwOXbGpMMdL-64" style="shape=partialRectangle;connectable=0;fillColor=none;top=0;left=0;bottom=0;right=0;editable=1;overflow=hidden;whiteSpace=wrap;html=1;fontSize=13;" vertex="1" parent="nuJ0KApkgOwOXbGpMMdL-63">
          <mxGeometry width="30" height="45" as="geometry">
            <mxRectangle width="30" height="45" as="alternateBounds" />
          </mxGeometry>
        </mxCell>
        <mxCell id="nuJ0KApkgOwOXbGpMMdL-65" value="category" style="shape=partialRectangle;connectable=0;fillColor=none;top=0;left=0;bottom=0;right=0;align=left;spacingLeft=6;overflow=hidden;whiteSpace=wrap;html=1;fontSize=13;fontStyle=1" vertex="1" parent="nuJ0KApkgOwOXbGpMMdL-63">
          <mxGeometry x="30" width="150" height="45" as="geometry">
            <mxRectangle width="150" height="45" as="alternateBounds" />
          </mxGeometry>
        </mxCell>
        <mxCell id="nuJ0KApkgOwOXbGpMMdL-66" style="shape=tableRow;horizontal=0;startSize=0;swimlaneHead=0;swimlaneBody=0;fillColor=none;collapsible=0;dropTarget=0;points=[[0,0.5],[1,0.5]];portConstraint=eastwest;top=0;left=0;right=0;bottom=0;fontSize=13;" vertex="1" parent="nuJ0KApkgOwOXbGpMMdL-47">
          <mxGeometry y="330" width="180" height="45" as="geometry" />
        </mxCell>
        <mxCell id="nuJ0KApkgOwOXbGpMMdL-67" style="shape=partialRectangle;connectable=0;fillColor=none;top=0;left=0;bottom=0;right=0;editable=1;overflow=hidden;whiteSpace=wrap;html=1;fontSize=13;" vertex="1" parent="nuJ0KApkgOwOXbGpMMdL-66">
          <mxGeometry width="30" height="45" as="geometry">
            <mxRectangle width="30" height="45" as="alternateBounds" />
          </mxGeometry>
        </mxCell>
        <mxCell id="nuJ0KApkgOwOXbGpMMdL-68" value="sub_category" style="shape=partialRectangle;connectable=0;fillColor=none;top=0;left=0;bottom=0;right=0;align=left;spacingLeft=6;overflow=hidden;whiteSpace=wrap;html=1;fontSize=13;fontStyle=1" vertex="1" parent="nuJ0KApkgOwOXbGpMMdL-66">
          <mxGeometry x="30" width="150" height="45" as="geometry">
            <mxRectangle width="150" height="45" as="alternateBounds" />
          </mxGeometry>
        </mxCell>
        <mxCell id="nuJ0KApkgOwOXbGpMMdL-69" style="shape=tableRow;horizontal=0;startSize=0;swimlaneHead=0;swimlaneBody=0;fillColor=none;collapsible=0;dropTarget=0;points=[[0,0.5],[1,0.5]];portConstraint=eastwest;top=0;left=0;right=0;bottom=0;fontSize=13;" vertex="1" parent="nuJ0KApkgOwOXbGpMMdL-47">
          <mxGeometry y="375" width="180" height="45" as="geometry" />
        </mxCell>
        <mxCell id="nuJ0KApkgOwOXbGpMMdL-70" style="shape=partialRectangle;connectable=0;fillColor=none;top=0;left=0;bottom=0;right=0;editable=1;overflow=hidden;whiteSpace=wrap;html=1;fontSize=13;" vertex="1" parent="nuJ0KApkgOwOXbGpMMdL-69">
          <mxGeometry width="30" height="45" as="geometry">
            <mxRectangle width="30" height="45" as="alternateBounds" />
          </mxGeometry>
        </mxCell>
        <mxCell id="nuJ0KApkgOwOXbGpMMdL-71" value="cost" style="shape=partialRectangle;connectable=0;fillColor=none;top=0;left=0;bottom=0;right=0;align=left;spacingLeft=6;overflow=hidden;whiteSpace=wrap;html=1;fontSize=13;fontStyle=1" vertex="1" parent="nuJ0KApkgOwOXbGpMMdL-69">
          <mxGeometry x="30" width="150" height="45" as="geometry">
            <mxRectangle width="150" height="45" as="alternateBounds" />
          </mxGeometry>
        </mxCell>
        <mxCell id="nuJ0KApkgOwOXbGpMMdL-72" style="shape=tableRow;horizontal=0;startSize=0;swimlaneHead=0;swimlaneBody=0;fillColor=none;collapsible=0;dropTarget=0;points=[[0,0.5],[1,0.5]];portConstraint=eastwest;top=0;left=0;right=0;bottom=0;fontSize=13;" vertex="1" parent="nuJ0KApkgOwOXbGpMMdL-47">
          <mxGeometry y="420" width="180" height="45" as="geometry" />
        </mxCell>
        <mxCell id="nuJ0KApkgOwOXbGpMMdL-73" style="shape=partialRectangle;connectable=0;fillColor=none;top=0;left=0;bottom=0;right=0;editable=1;overflow=hidden;whiteSpace=wrap;html=1;fontSize=13;" vertex="1" parent="nuJ0KApkgOwOXbGpMMdL-72">
          <mxGeometry width="30" height="45" as="geometry">
            <mxRectangle width="30" height="45" as="alternateBounds" />
          </mxGeometry>
        </mxCell>
        <mxCell id="nuJ0KApkgOwOXbGpMMdL-74" value="product_line" style="shape=partialRectangle;connectable=0;fillColor=none;top=0;left=0;bottom=0;right=0;align=left;spacingLeft=6;overflow=hidden;whiteSpace=wrap;html=1;fontSize=13;fontStyle=1" vertex="1" parent="nuJ0KApkgOwOXbGpMMdL-72">
          <mxGeometry x="30" width="150" height="45" as="geometry">
            <mxRectangle width="150" height="45" as="alternateBounds" />
          </mxGeometry>
        </mxCell>
        <mxCell id="nuJ0KApkgOwOXbGpMMdL-75" style="shape=tableRow;horizontal=0;startSize=0;swimlaneHead=0;swimlaneBody=0;fillColor=none;collapsible=0;dropTarget=0;points=[[0,0.5],[1,0.5]];portConstraint=eastwest;top=0;left=0;right=0;bottom=0;fontSize=13;" vertex="1" parent="nuJ0KApkgOwOXbGpMMdL-47">
          <mxGeometry y="465" width="180" height="45" as="geometry" />
        </mxCell>
        <mxCell id="nuJ0KApkgOwOXbGpMMdL-76" style="shape=partialRectangle;connectable=0;fillColor=none;top=0;left=0;bottom=0;right=0;editable=1;overflow=hidden;whiteSpace=wrap;html=1;fontSize=13;" vertex="1" parent="nuJ0KApkgOwOXbGpMMdL-75">
          <mxGeometry width="30" height="45" as="geometry">
            <mxRectangle width="30" height="45" as="alternateBounds" />
          </mxGeometry>
        </mxCell>
        <mxCell id="nuJ0KApkgOwOXbGpMMdL-77" value="start_date" style="shape=partialRectangle;connectable=0;fillColor=none;top=0;left=0;bottom=0;right=0;align=left;spacingLeft=6;overflow=hidden;whiteSpace=wrap;html=1;fontSize=13;fontStyle=1" vertex="1" parent="nuJ0KApkgOwOXbGpMMdL-75">
          <mxGeometry x="30" width="150" height="45" as="geometry">
            <mxRectangle width="150" height="45" as="alternateBounds" />
          </mxGeometry>
        </mxCell>
        <mxCell id="nuJ0KApkgOwOXbGpMMdL-78" style="shape=tableRow;horizontal=0;startSize=0;swimlaneHead=0;swimlaneBody=0;fillColor=none;collapsible=0;dropTarget=0;points=[[0,0.5],[1,0.5]];portConstraint=eastwest;top=0;left=0;right=0;bottom=0;fontSize=13;" vertex="1" parent="nuJ0KApkgOwOXbGpMMdL-47">
          <mxGeometry y="510" width="180" height="45" as="geometry" />
        </mxCell>
        <mxCell id="nuJ0KApkgOwOXbGpMMdL-79" style="shape=partialRectangle;connectable=0;fillColor=none;top=0;left=0;bottom=0;right=0;editable=1;overflow=hidden;whiteSpace=wrap;html=1;fontSize=13;" vertex="1" parent="nuJ0KApkgOwOXbGpMMdL-78">
          <mxGeometry width="30" height="45" as="geometry">
            <mxRectangle width="30" height="45" as="alternateBounds" />
          </mxGeometry>
        </mxCell>
        <mxCell id="nuJ0KApkgOwOXbGpMMdL-80" value="maintenance" style="shape=partialRectangle;connectable=0;fillColor=none;top=0;left=0;bottom=0;right=0;align=left;spacingLeft=6;overflow=hidden;whiteSpace=wrap;html=1;fontSize=13;fontStyle=1" vertex="1" parent="nuJ0KApkgOwOXbGpMMdL-78">
          <mxGeometry x="30" width="150" height="45" as="geometry">
            <mxRectangle width="150" height="45" as="alternateBounds" />
          </mxGeometry>
        </mxCell>
        <mxCell id="nuJ0KApkgOwOXbGpMMdL-81" value="gold.fact_sales&amp;nbsp;" style="shape=table;startSize=40;container=1;collapsible=1;childLayout=tableLayout;fixedRows=1;rowLines=0;fontStyle=1;align=center;resizeLast=1;html=1;fillColor=#dae8fc;strokeColor=#6c8ebf;rounded=1;arcSize=9;" vertex="1" parent="1">
          <mxGeometry x="320" y="180" width="180" height="446" as="geometry" />
        </mxCell>
        <mxCell id="nuJ0KApkgOwOXbGpMMdL-112" style="shape=tableRow;horizontal=0;startSize=0;swimlaneHead=0;swimlaneBody=0;fillColor=none;collapsible=0;dropTarget=0;points=[[0,0.5],[1,0.5]];portConstraint=eastwest;top=0;left=0;right=0;bottom=0;fontSize=13;" vertex="1" parent="nuJ0KApkgOwOXbGpMMdL-81">
          <mxGeometry y="40" width="180" height="43" as="geometry" />
        </mxCell>
        <mxCell id="nuJ0KApkgOwOXbGpMMdL-113" style="shape=partialRectangle;connectable=0;fillColor=none;top=0;left=0;bottom=0;right=0;editable=1;overflow=hidden;whiteSpace=wrap;html=1;fontSize=13;" vertex="1" parent="nuJ0KApkgOwOXbGpMMdL-112">
          <mxGeometry width="30" height="43" as="geometry">
            <mxRectangle width="30" height="43" as="alternateBounds" />
          </mxGeometry>
        </mxCell>
        <mxCell id="nuJ0KApkgOwOXbGpMMdL-114" value="order_number" style="shape=partialRectangle;connectable=0;fillColor=none;top=0;left=0;bottom=0;right=0;align=left;spacingLeft=6;overflow=hidden;whiteSpace=wrap;html=1;fontSize=13;strokeColor=inherit;fontStyle=1" vertex="1" parent="nuJ0KApkgOwOXbGpMMdL-112">
          <mxGeometry x="30" width="150" height="43" as="geometry">
            <mxRectangle width="150" height="43" as="alternateBounds" />
          </mxGeometry>
        </mxCell>
        <mxCell id="nuJ0KApkgOwOXbGpMMdL-85" value="" style="shape=tableRow;horizontal=0;startSize=0;swimlaneHead=0;swimlaneBody=0;fillColor=none;collapsible=0;dropTarget=0;points=[[0,0.5],[1,0.5]];portConstraint=eastwest;top=0;left=0;right=0;bottom=0;fontSize=13;" vertex="1" parent="nuJ0KApkgOwOXbGpMMdL-81">
          <mxGeometry y="83" width="180" height="43" as="geometry" />
        </mxCell>
        <mxCell id="nuJ0KApkgOwOXbGpMMdL-86" value="&lt;b&gt;FK1&lt;/b&gt;" style="shape=partialRectangle;connectable=0;fillColor=none;top=0;left=0;bottom=0;right=0;editable=1;overflow=hidden;whiteSpace=wrap;html=1;fontSize=13;" vertex="1" parent="nuJ0KApkgOwOXbGpMMdL-85">
          <mxGeometry width="30" height="43" as="geometry">
            <mxRectangle width="30" height="43" as="alternateBounds" />
          </mxGeometry>
        </mxCell>
        <mxCell id="nuJ0KApkgOwOXbGpMMdL-87" value="product_key" style="shape=partialRectangle;connectable=0;fillColor=none;top=0;left=0;bottom=0;right=0;align=left;spacingLeft=6;overflow=hidden;whiteSpace=wrap;html=1;fontSize=13;strokeColor=inherit;fontStyle=1" vertex="1" parent="nuJ0KApkgOwOXbGpMMdL-85">
          <mxGeometry x="30" width="150" height="43" as="geometry">
            <mxRectangle width="150" height="43" as="alternateBounds" />
          </mxGeometry>
        </mxCell>
        <mxCell id="nuJ0KApkgOwOXbGpMMdL-88" value="" style="shape=tableRow;horizontal=0;startSize=0;swimlaneHead=0;swimlaneBody=0;fillColor=none;collapsible=0;dropTarget=0;points=[[0,0.5],[1,0.5]];portConstraint=eastwest;top=0;left=0;right=0;bottom=0;fontSize=13;" vertex="1" parent="nuJ0KApkgOwOXbGpMMdL-81">
          <mxGeometry y="126" width="180" height="46" as="geometry" />
        </mxCell>
        <mxCell id="nuJ0KApkgOwOXbGpMMdL-89" value="&lt;b&gt;FK2&lt;/b&gt;" style="shape=partialRectangle;connectable=0;fillColor=none;top=0;left=0;bottom=0;right=0;editable=1;overflow=hidden;whiteSpace=wrap;html=1;fontSize=13;" vertex="1" parent="nuJ0KApkgOwOXbGpMMdL-88">
          <mxGeometry width="30" height="46" as="geometry">
            <mxRectangle width="30" height="46" as="alternateBounds" />
          </mxGeometry>
        </mxCell>
        <mxCell id="nuJ0KApkgOwOXbGpMMdL-90" value="customer_key" style="shape=partialRectangle;connectable=0;fillColor=none;top=0;left=0;bottom=0;right=0;align=left;spacingLeft=6;overflow=hidden;whiteSpace=wrap;html=1;fontSize=13;fontStyle=1" vertex="1" parent="nuJ0KApkgOwOXbGpMMdL-88">
          <mxGeometry x="30" width="150" height="46" as="geometry">
            <mxRectangle width="150" height="46" as="alternateBounds" />
          </mxGeometry>
        </mxCell>
        <mxCell id="nuJ0KApkgOwOXbGpMMdL-91" value="" style="shape=tableRow;horizontal=0;startSize=0;swimlaneHead=0;swimlaneBody=0;fillColor=none;collapsible=0;dropTarget=0;points=[[0,0.5],[1,0.5]];portConstraint=eastwest;top=0;left=0;right=0;bottom=0;fontSize=13;" vertex="1" parent="nuJ0KApkgOwOXbGpMMdL-81">
          <mxGeometry y="172" width="180" height="49" as="geometry" />
        </mxCell>
        <mxCell id="nuJ0KApkgOwOXbGpMMdL-92" value="" style="shape=partialRectangle;connectable=0;fillColor=none;top=0;left=0;bottom=0;right=0;editable=1;overflow=hidden;whiteSpace=wrap;html=1;fontSize=13;" vertex="1" parent="nuJ0KApkgOwOXbGpMMdL-91">
          <mxGeometry width="30" height="49" as="geometry">
            <mxRectangle width="30" height="49" as="alternateBounds" />
          </mxGeometry>
        </mxCell>
        <mxCell id="nuJ0KApkgOwOXbGpMMdL-93" value="order_date" style="shape=partialRectangle;connectable=0;fillColor=none;top=0;left=0;bottom=0;right=0;align=left;spacingLeft=6;overflow=hidden;whiteSpace=wrap;html=1;fontSize=13;fontStyle=1" vertex="1" parent="nuJ0KApkgOwOXbGpMMdL-91">
          <mxGeometry x="30" width="150" height="49" as="geometry">
            <mxRectangle width="150" height="49" as="alternateBounds" />
          </mxGeometry>
        </mxCell>
        <mxCell id="nuJ0KApkgOwOXbGpMMdL-94" style="shape=tableRow;horizontal=0;startSize=0;swimlaneHead=0;swimlaneBody=0;fillColor=none;collapsible=0;dropTarget=0;points=[[0,0.5],[1,0.5]];portConstraint=eastwest;top=0;left=0;right=0;bottom=0;fontSize=13;" vertex="1" parent="nuJ0KApkgOwOXbGpMMdL-81">
          <mxGeometry y="221" width="180" height="45" as="geometry" />
        </mxCell>
        <mxCell id="nuJ0KApkgOwOXbGpMMdL-95" style="shape=partialRectangle;connectable=0;fillColor=none;top=0;left=0;bottom=0;right=0;editable=1;overflow=hidden;whiteSpace=wrap;html=1;fontSize=13;" vertex="1" parent="nuJ0KApkgOwOXbGpMMdL-94">
          <mxGeometry width="30" height="45" as="geometry">
            <mxRectangle width="30" height="45" as="alternateBounds" />
          </mxGeometry>
        </mxCell>
        <mxCell id="nuJ0KApkgOwOXbGpMMdL-96" value="shiping_date" style="shape=partialRectangle;connectable=0;fillColor=none;top=0;left=0;bottom=0;right=0;align=left;spacingLeft=6;overflow=hidden;whiteSpace=wrap;html=1;fontSize=13;fontStyle=1" vertex="1" parent="nuJ0KApkgOwOXbGpMMdL-94">
          <mxGeometry x="30" width="150" height="45" as="geometry">
            <mxRectangle width="150" height="45" as="alternateBounds" />
          </mxGeometry>
        </mxCell>
        <mxCell id="nuJ0KApkgOwOXbGpMMdL-97" style="shape=tableRow;horizontal=0;startSize=0;swimlaneHead=0;swimlaneBody=0;fillColor=none;collapsible=0;dropTarget=0;points=[[0,0.5],[1,0.5]];portConstraint=eastwest;top=0;left=0;right=0;bottom=0;fontSize=13;" vertex="1" parent="nuJ0KApkgOwOXbGpMMdL-81">
          <mxGeometry y="266" width="180" height="45" as="geometry" />
        </mxCell>
        <mxCell id="nuJ0KApkgOwOXbGpMMdL-98" style="shape=partialRectangle;connectable=0;fillColor=none;top=0;left=0;bottom=0;right=0;editable=1;overflow=hidden;whiteSpace=wrap;html=1;fontSize=13;" vertex="1" parent="nuJ0KApkgOwOXbGpMMdL-97">
          <mxGeometry width="30" height="45" as="geometry">
            <mxRectangle width="30" height="45" as="alternateBounds" />
          </mxGeometry>
        </mxCell>
        <mxCell id="nuJ0KApkgOwOXbGpMMdL-99" value="due_date" style="shape=partialRectangle;connectable=0;fillColor=none;top=0;left=0;bottom=0;right=0;align=left;spacingLeft=6;overflow=hidden;whiteSpace=wrap;html=1;fontSize=13;fontStyle=1" vertex="1" parent="nuJ0KApkgOwOXbGpMMdL-97">
          <mxGeometry x="30" width="150" height="45" as="geometry">
            <mxRectangle width="150" height="45" as="alternateBounds" />
          </mxGeometry>
        </mxCell>
        <mxCell id="nuJ0KApkgOwOXbGpMMdL-100" style="shape=tableRow;horizontal=0;startSize=0;swimlaneHead=0;swimlaneBody=0;fillColor=none;collapsible=0;dropTarget=0;points=[[0,0.5],[1,0.5]];portConstraint=eastwest;top=0;left=0;right=0;bottom=0;fontSize=13;" vertex="1" parent="nuJ0KApkgOwOXbGpMMdL-81">
          <mxGeometry y="311" width="180" height="45" as="geometry" />
        </mxCell>
        <mxCell id="nuJ0KApkgOwOXbGpMMdL-101" style="shape=partialRectangle;connectable=0;fillColor=none;top=0;left=0;bottom=0;right=0;editable=1;overflow=hidden;whiteSpace=wrap;html=1;fontSize=13;" vertex="1" parent="nuJ0KApkgOwOXbGpMMdL-100">
          <mxGeometry width="30" height="45" as="geometry">
            <mxRectangle width="30" height="45" as="alternateBounds" />
          </mxGeometry>
        </mxCell>
        <mxCell id="nuJ0KApkgOwOXbGpMMdL-102" value="sales_amount" style="shape=partialRectangle;connectable=0;fillColor=none;top=0;left=0;bottom=0;right=0;align=left;spacingLeft=6;overflow=hidden;whiteSpace=wrap;html=1;fontSize=13;fontStyle=1" vertex="1" parent="nuJ0KApkgOwOXbGpMMdL-100">
          <mxGeometry x="30" width="150" height="45" as="geometry">
            <mxRectangle width="150" height="45" as="alternateBounds" />
          </mxGeometry>
        </mxCell>
        <mxCell id="nuJ0KApkgOwOXbGpMMdL-103" style="shape=tableRow;horizontal=0;startSize=0;swimlaneHead=0;swimlaneBody=0;fillColor=none;collapsible=0;dropTarget=0;points=[[0,0.5],[1,0.5]];portConstraint=eastwest;top=0;left=0;right=0;bottom=0;fontSize=13;" vertex="1" parent="nuJ0KApkgOwOXbGpMMdL-81">
          <mxGeometry y="356" width="180" height="45" as="geometry" />
        </mxCell>
        <mxCell id="nuJ0KApkgOwOXbGpMMdL-104" style="shape=partialRectangle;connectable=0;fillColor=none;top=0;left=0;bottom=0;right=0;editable=1;overflow=hidden;whiteSpace=wrap;html=1;fontSize=13;" vertex="1" parent="nuJ0KApkgOwOXbGpMMdL-103">
          <mxGeometry width="30" height="45" as="geometry">
            <mxRectangle width="30" height="45" as="alternateBounds" />
          </mxGeometry>
        </mxCell>
        <mxCell id="nuJ0KApkgOwOXbGpMMdL-105" value="quantity" style="shape=partialRectangle;connectable=0;fillColor=none;top=0;left=0;bottom=0;right=0;align=left;spacingLeft=6;overflow=hidden;whiteSpace=wrap;html=1;fontSize=13;fontStyle=1" vertex="1" parent="nuJ0KApkgOwOXbGpMMdL-103">
          <mxGeometry x="30" width="150" height="45" as="geometry">
            <mxRectangle width="150" height="45" as="alternateBounds" />
          </mxGeometry>
        </mxCell>
        <mxCell id="nuJ0KApkgOwOXbGpMMdL-106" style="shape=tableRow;horizontal=0;startSize=0;swimlaneHead=0;swimlaneBody=0;fillColor=none;collapsible=0;dropTarget=0;points=[[0,0.5],[1,0.5]];portConstraint=eastwest;top=0;left=0;right=0;bottom=0;fontSize=13;" vertex="1" parent="nuJ0KApkgOwOXbGpMMdL-81">
          <mxGeometry y="401" width="180" height="45" as="geometry" />
        </mxCell>
        <mxCell id="nuJ0KApkgOwOXbGpMMdL-107" style="shape=partialRectangle;connectable=0;fillColor=none;top=0;left=0;bottom=0;right=0;editable=1;overflow=hidden;whiteSpace=wrap;html=1;fontSize=13;" vertex="1" parent="nuJ0KApkgOwOXbGpMMdL-106">
          <mxGeometry width="30" height="45" as="geometry">
            <mxRectangle width="30" height="45" as="alternateBounds" />
          </mxGeometry>
        </mxCell>
        <mxCell id="nuJ0KApkgOwOXbGpMMdL-108" value="price" style="shape=partialRectangle;connectable=0;fillColor=none;top=0;left=0;bottom=0;right=0;align=left;spacingLeft=6;overflow=hidden;whiteSpace=wrap;html=1;fontSize=13;fontStyle=1" vertex="1" parent="nuJ0KApkgOwOXbGpMMdL-106">
          <mxGeometry x="30" width="150" height="45" as="geometry">
            <mxRectangle width="150" height="45" as="alternateBounds" />
          </mxGeometry>
        </mxCell>
        <mxCell id="nuJ0KApkgOwOXbGpMMdL-115" value="" style="edgeStyle=entityRelationEdgeStyle;fontSize=12;html=1;endArrow=ERzeroToMany;startArrow=ERmandOne;rounded=0;fontFamily=Helvetica;fontColor=default;fontStyle=1;exitX=1;exitY=0.5;exitDx=0;exitDy=0;entryX=0;entryY=0.5;entryDx=0;entryDy=0;" edge="1" parent="1" source="nuJ0KApkgOwOXbGpMMdL-4" target="nuJ0KApkgOwOXbGpMMdL-88">
          <mxGeometry width="100" height="100" relative="1" as="geometry">
            <mxPoint x="200" y="290" as="sourcePoint" />
            <mxPoint x="300" y="190" as="targetPoint" />
            <Array as="points">
              <mxPoint x="310" y="330" />
              <mxPoint x="290" y="270" />
            </Array>
          </mxGeometry>
        </mxCell>
        <mxCell id="nuJ0KApkgOwOXbGpMMdL-116" value="" style="edgeStyle=entityRelationEdgeStyle;fontSize=12;html=1;endArrow=ERzeroToMany;startArrow=ERmandOne;rounded=0;fontFamily=Helvetica;fontColor=default;fontStyle=1;exitX=0;exitY=0.5;exitDx=0;exitDy=0;entryX=1;entryY=0.5;entryDx=0;entryDy=0;" edge="1" parent="1" source="nuJ0KApkgOwOXbGpMMdL-48" target="nuJ0KApkgOwOXbGpMMdL-85">
          <mxGeometry width="100" height="100" relative="1" as="geometry">
            <mxPoint x="530" y="410" as="sourcePoint" />
            <mxPoint x="630" y="310" as="targetPoint" />
            <Array as="points">
              <mxPoint x="570" y="320" />
            </Array>
          </mxGeometry>
        </mxCell>
        <mxCell id="nuJ0KApkgOwOXbGpMMdL-117" value="&lt;h1 style=&quot;margin-top: 0px;&quot;&gt;&lt;span style=&quot;font-size: 12px; background-color: transparent; color: light-dark(rgb(0, 0, 0), rgb(255, 255, 255));&quot;&gt;SALES CALCULATION&lt;/span&gt;&lt;/h1&gt;&lt;h1 style=&quot;margin-top: 0px;&quot;&gt;&lt;font size=&quot;1&quot;&gt;Sales = qunatity*price&lt;/font&gt;&lt;/h1&gt;" style="text;html=1;whiteSpace=wrap;overflow=hidden;rounded=1;fontFamily=Helvetica;fontSize=12;fontStyle=1;strokeColor=#82b366;fillColor=#d5e8d4;" vertex="1" parent="1">
          <mxGeometry x="370" y="635" width="150" height="95" as="geometry" />
        </mxCell>
        <mxCell id="nuJ0KApkgOwOXbGpMMdL-118" value="" style="curved=1;endArrow=classic;html=1;rounded=0;fontFamily=Helvetica;fontSize=12;fontColor=default;fontStyle=1;entryX=1;entryY=0.5;entryDx=0;entryDy=0;" edge="1" parent="1" target="nuJ0KApkgOwOXbGpMMdL-100">
          <mxGeometry width="50" height="50" relative="1" as="geometry">
            <mxPoint x="520" y="680" as="sourcePoint" />
            <mxPoint x="570" y="630" as="targetPoint" />
            <Array as="points">
              <mxPoint x="570" y="680" />
              <mxPoint x="520" y="630" />
            </Array>
          </mxGeometry>
        </mxCell>
      </root>
    </mxGraphModel>
  </diagram>
</mxfile>
